<?xml version="1.0" encoding="utf-8"?>
<!-- Generator: Adobe Illustrator 16.0.0, SVG Export Plug-In . SVG Version: 6.00 Build 0)  -->
<!DOCTYPE svg PUBLIC "-//W3C//DTD SVG 1.0//EN" "http://www.w3.org/TR/2001/REC-SVG-20010904/DTD/svg10.dtd">
<svg version="1.0" id="Layer_1" xmlns="http://www.w3.org/2000/svg" xmlns:xlink="http://www.w3.org/1999/xlink" x="0px" y="0px"
	 width="691px" height="240px" viewBox="0 0 691 240" enable-background="new 0 0 691 240" xml:space="preserve">
<rect x="-205.493" y="-61.49" fill="#006AD9" width="52" height="52"/>
<rect x="-205.493" y="-0.49" fill="#093BAD" width="52" height="52"/>
<rect x="-205.493" y="58.51" fill="#4A97E5" width="52" height="52"/>
<rect x="-205.493" y="118.51" fill="#CECFCF" width="52" height="52"/>
<rect x="-205.493" y="178.51" fill="#D1DFEE" width="52" height="52"/>
<rect x="-205.493" y="238.51" fill="#808599" width="52" height="52"/>
<path fill="#FCA768" d="M122.93,108.75c0.39,0.41,2.35,2.96,2.04,12.74c-0.04,0.16-0.11,0.39-0.17,0.529
	c-1.31,1.681-2.62,3.28-3.9,4.78c-5.11,6.021-9.74,10.44-12.47,11.851c-1.01-0.12-2.08-0.53-2.66-1.641
	c0.27-1.2,1.17-4.399,3.92-10.39c1.89-4.101,4.65-9.51,8.67-16.48c0.03-0.05,0.07-0.1,0.11-0.14c1.41-0.92,2.88-1.51,3.8-1.51
	C122.63,108.49,122.75,108.57,122.93,108.75z"/>
<path fill="#FCA768" d="M119.63,142.65c-1.03,5.84-2.74,10.689-3,11.39c-5.06,11.89-8.08,28.979-9.29,36.96H57.39v-5.9
	c0-0.83-0.2-1.64-0.6-2.369L28.87,130.92c-0.07-0.15-0.13-0.36-0.15-0.52c0.92-0.771,5.58-4.74,30.14-25.62
	c0.33-0.141,0.94-0.34,1.49-0.5l24.17-3.11c0.46,2.1,0.28,3.98-0.56,5.72c-2.05,4.261-8.02,7.931-17.27,10.63
	c-1.23,0.351-2.27,1.171-2.91,2.271l-2.16,3.68c-0.12,0.11-0.24,0.23-0.35,0.36c-0.54,0.62-0.9,1.34-1.08,2.08l-3.83,6.52
	c-1.39,2.38-0.59,5.45,1.79,6.84c2.38,1.4,5.44,0.601,6.84-1.779l1.26-2.141c4.42,4.771,11.2,13.051,16.05,23.511
	c0.85,1.83,2.65,2.899,4.54,2.899c0.7,0,1.42-0.149,2.1-0.46c2.5-1.16,3.59-4.14,2.43-6.64c-1-2.16-2.06-4.23-3.18-6.2
	c0.65,0.13,1.37,0.21,2.16,0.21c2.44,0,5.65-0.79,8.89-3.86c2.83,2.79,6.67,3.881,9.87,3.881c0.38,0,0.58-0.021,0.58-0.021
	c0.44-0.03,0.94-0.13,1.36-0.27C113.67,147.47,116.63,145.36,119.63,142.65z"/>
<path fill="#FCA768" d="M106.66,109.17l-6.09,12.98l-5.54,11.83c-1.97,3.46-3.74,4.689-4.68,4.689c-0.12,0-0.22-0.02-0.29-0.04
	c-0.17-0.149-0.18-0.13-0.36-0.2c-1.49-2.22-0.77-12.46,1.54-21.399c0.01-0.05,0.03-0.101,0.04-0.15c0.51-2.27,1.15-4.09,1.87-5.56
	c2.56-5.21,6.05-5.891,7.69-5.891c0.19,0,0.33,0.011,0.4,0.021c0.31,0.06,0.46,0.069,0.76,0.069
	C102.75,105.7,104.67,107.04,106.66,109.17z"/>
<path d="M88.19,148.46c-1.62-0.32-2.81-0.94-3.45-1.33c-3.92-2.149-5.46-6.92-5.77-12.32C81.98,138.58,85.23,143.18,88.19,148.46z"
	/>
<path fill="#FCA768" d="M80.53,35.59l0.4,55.96L62.72,93.9L73.01,35.11c0.01-0.05,0.02-0.09,0.03-0.14c0.35-2.43,1.86-7.6,3.88-9.08
	c0.34-0.25,0.54-0.27,0.85-0.22c0.32,0.05,0.2,0.07,0.39,0.06c1.16,0.36,3,2.69,2.39,9.37C80.53,35.26,80.53,35.43,80.53,35.59z"/>
<path fill="#FCA768" d="M79.74,123.23c-0.6,3.71-0.99,7.8-0.77,11.579c-2.83-3.56-5.45-6.38-7.38-8.34
	C74.59,125.51,77.31,124.43,79.74,123.23z"/>
<path d="M62.72,93.9l-0.17,0.939c-0.37,2.12-2.06,3.771-4.19,4.08c-2.04,0.311-4.05-0.68-5.07-2.45c1.14-0.76,2.76-1.41,4.83-1.95
	c0.2-0.05,0.41-0.09,0.61-0.109L62.72,93.9z"/>
<path fill="#EF8E35" d="M61.27,123.83c0.11-0.13,0.23-0.25,0.35-0.36l-1.43,2.44C60.37,125.17,60.73,124.45,61.27,123.83z"/>
<path fill="#FCA768" d="M53.16,96.23c0.04,0.079,0.09,0.159,0.13,0.239c-0.24,0.15-0.45,0.311-0.65,0.48
	c-2.44,2.069-7.93,6.74-13.59,11.55c-7.92-21.98-18.46-52.96-18.72-58.79c-0.03-0.63-0.18-1.26-0.44-1.84
	c-0.31-0.67-1.01-3.08-0.42-4.45c0.1-0.24,0.37-0.88,1.88-1.4c0.24-0.09,0.48-0.19,0.7-0.31c0.73-0.16,3.33,0.67,6.79,6.3
	L53.16,96.23z"/>
<path d="M130.12,101.8c-2.09-2.17-4.81-3.31-7.85-3.31c-3.57,0-6.84,1.569-9.09,3.02c-2.73-2.76-6.6-5.779-10.65-5.979
	c-0.39-0.05-0.97-0.101-1.69-0.101c-1.4,0-4.1,0.221-7.1,1.62c-0.19-0.62-0.42-1.26-0.69-1.91c-0.51-1.239-1.24-2.189-2.11-2.89
	l-0.41-56.5c0.59-6.91-0.7-12.24-3.83-15.85c-2.89-3.34-6.31-4-7.54-4.13c-2.94-0.43-5.76,0.29-8.17,2.06
	c-5.84,4.3-7.53,13.6-7.84,15.62L55.3,78.27L37.67,43.33c-0.05-0.12-0.12-0.23-0.19-0.34C33.7,36.76,29.46,33.07,24.86,32
	c-3.39-0.78-5.97,0.12-7.18,0.71c-4.43,1.67-6.47,4.59-7.41,6.78c-1.99,4.66-0.6,9.6,0.15,11.63c1.26,10.74,15.55,50.649,20.5,64.3
	c-4.9,4.16-8.67,7.37-8.79,7.46c0,0,0,0.01-0.01,0.01c-4.21,3.58-4.04,9.091-2.1,12.7l27.37,50.771v7.02c0,3.7,2.52,7.62,7.18,7.62
	h54.07c3.55,0,7.78-2.95,8.42-7.33c1.01-6.95,3.91-24.36,8.82-35.81c0.03-0.07,0.06-0.141,0.08-0.221
	c0.22-0.59,5.32-14.34,4.32-26.47c0.88-1.08,1.73-2.13,2.53-3.16c1.47-1.89,2.09-4.649,2.14-5.95
	C135.3,112.16,133.72,105.53,130.12,101.8z M91.24,117.03c0.01-0.05,0.03-0.101,0.04-0.15c0.51-2.27,1.15-4.09,1.87-5.56
	c2.56-5.21,6.05-5.891,7.69-5.891c0.19,0,0.33,0.011,0.4,0.021c0.31,0.06,0.46,0.069,0.76,0.069c0.75,0.181,2.67,1.521,4.66,3.65
	l-6.09,12.98l-5.54,11.83c-1.97,3.46-3.74,4.689-4.68,4.689c-0.12,0-0.22-0.02-0.29-0.04c-0.17-0.149-0.18-0.13-0.36-0.2
	C88.21,136.21,88.93,125.97,91.24,117.03z M78.97,134.81c-2.83-3.56-5.45-6.38-7.38-8.34c3-0.96,5.72-2.04,8.15-3.239
	C79.14,126.94,78.75,131.03,78.97,134.81z M73.01,35.11c0.01-0.05,0.02-0.09,0.03-0.14c0.35-2.43,1.86-7.6,3.88-9.08
	c0.34-0.25,0.54-0.27,0.85-0.22c0.32,0.05,0.2,0.07,0.39,0.06c1.16,0.36,3,2.69,2.39,9.37c-0.02,0.16-0.02,0.33-0.02,0.49l0.4,55.96
	L62.72,93.9L73.01,35.11z M20.33,49.71c-0.03-0.63-0.18-1.26-0.44-1.84c-0.31-0.67-1.01-3.08-0.42-4.45c0.1-0.24,0.37-0.88,1.88-1.4
	c0.24-0.09,0.48-0.19,0.7-0.31c0.73-0.16,3.33,0.67,6.79,6.3L53.16,96.23c0.04,0.079,0.09,0.159,0.13,0.239
	c-0.24,0.15-0.45,0.311-0.65,0.48c-2.44,2.069-7.93,6.74-13.59,11.55C31.13,86.52,20.59,55.54,20.33,49.71z M116.63,154.04
	c-5.06,11.89-8.08,28.979-9.29,36.96H57.39v-5.9c0-0.83-0.2-1.64-0.6-2.369L28.87,130.92c-0.07-0.15-0.13-0.36-0.15-0.52
	c0.92-0.771,5.58-4.74,30.14-25.62c0.33-0.141,0.94-0.34,1.49-0.5l24.17-3.11c0.46,2.1,0.28,3.98-0.56,5.72
	c-2.05,4.261-8.02,7.931-17.27,10.63c-1.23,0.351-2.27,1.171-2.91,2.271l-2.16,3.68l-1.43,2.44l-3.83,6.52
	c-1.39,2.38-0.59,5.45,1.79,6.84c2.38,1.4,5.44,0.601,6.84-1.779l1.26-2.141c4.42,4.771,11.2,13.051,16.05,23.511
	c0.85,1.83,2.65,2.899,4.54,2.899c0.7,0,1.42-0.149,2.1-0.46c2.5-1.16,3.59-4.14,2.43-6.64c-1-2.16-2.06-4.23-3.18-6.2
	c0.65,0.13,1.37,0.21,2.16,0.21c2.44,0,5.65-0.79,8.89-3.86c2.83,2.79,6.67,3.881,9.87,3.881c0.38,0,0.58-0.021,0.58-0.021
	c0.44-0.03,0.94-0.13,1.36-0.27c2.62-0.931,5.58-3.04,8.58-5.75C118.6,148.49,116.89,153.34,116.63,154.04z M124.97,121.49
	c-0.04,0.16-0.11,0.39-0.17,0.529c-1.31,1.681-2.62,3.28-3.9,4.78c-5.11,6.021-9.74,10.44-12.47,11.851
	c-1.01-0.12-2.08-0.53-2.66-1.641c0.27-1.2,1.17-4.399,3.92-10.39c1.89-4.101,4.65-9.51,8.67-16.48c0.03-0.05,0.07-0.1,0.11-0.14
	c1.41-0.92,2.88-1.51,3.8-1.51c0.36,0,0.48,0.08,0.66,0.26C123.32,109.16,125.28,111.71,124.97,121.49z"/>
<path fill="none" stroke="#000000" stroke-miterlimit="10" d="M167,120"/>
<g>
	<path fill="#FFFFFF" d="M262,160c0.052,0,0.103-0.007,0.154-0.008h-0.27C261.924,159.993,261.961,160,262,160z"/>
	<path d="M262.154,159.992h-0.27c0.039,0.001,0.076,0.008,0.115,0.008C262.052,160,262.103,159.993,262.154,159.992L262.154,159.992
		z"/>
</g>
<g>
	<path fill="#FFFFFF" d="M258,160c0.039,0,0.076-0.007,0.115-0.008h-0.27C257.897,159.993,257.948,160,258,160z"/>
	<path d="M258.115,159.992h-0.27c0.052,0.001,0.103,0.008,0.154,0.008C258.039,160,258.076,159.993,258.115,159.992L258.115,159.992
		z"/>
</g>
<g>
	<g>
		<g>
			<circle fill="#FFFFFF" cx="280" cy="100" r="10"/>
		</g>
		<g>
			<path fill="#FFFFFF" d="M290,130v60c0,4.37-3.5,7.91-7.85,7.99h-4.301c-4.35-0.08-7.85-3.62-7.85-7.99v-60c0-4.42,3.58-8,8-8h4
				C286.42,122,290,125.58,290,130z"/>
		</g>
	</g>
	<g>
		<path fill="#FFFFFF" d="M343,122h-32c-4.42,0-8,3.58-8,8v60c0,1.74,0.56,3.36,1.51,4.67l0.8,0.96l0.03,0.03
			c1.45,1.439,3.45,2.34,5.66,2.34h4c2.21,0,4.21-0.9,5.66-2.34l0.03-0.03l0.8-0.96c0.95-1.31,1.51-2.93,1.51-4.67v-40
			c0-4.42,3.58-8,8-8h14c4.42,0,8,3.58,8,8v40c0,1.74,0.561,3.359,1.51,4.67l0.801,0.96l0.029,0.03c1.45,1.439,3.45,2.34,5.66,2.34
			h4c2.21,0,4.21-0.9,5.66-2.34l0.029-0.03l0.801-0.96c0.949-1.311,1.51-2.93,1.51-4.67v-38C373,135.43,359.57,122,343,122z"/>
	</g>
	<g>
		<path fill="#FFFFFF" d="M445,122h-4c-4.42,0-8,3.58-8,8v40c0,1.74-0.56,3.36-1.51,4.67l-0.8,0.96l-0.03,0.03
			c-1.45,1.439-3.45,2.34-5.66,2.34h-14c-2.21,0-4.21-0.9-5.66-2.34l-0.03-0.03l-0.8-0.96c-0.95-1.31-1.51-2.93-1.51-4.67v-40
			c0-4.42-3.58-8-8-8h-4c-4.42,0-8,3.58-8,8v38c0,16.57,13.43,30,30,30h10c16.57,0,30-13.43,30-30v-38
			C453,125.58,449.42,122,445,122z"/>
	</g>
	<g>
		<path fill="#FFFFFF" d="M632,142h34c2.21,0,4.21-0.9,5.66-2.34l0.03-0.03l0.8-0.96c0.95-1.31,1.51-2.93,1.51-4.67v-4
			c0-4.42-3.58-8-8-8h-32c-16.57,0-30,13.43-30,30v10c0,1.74,0.56,3.36,1.51,4.67l0.8,0.96l0.03,0.03
			c1.45,1.439,3.45,2.34,5.66,2.34h26h16c0,1.74-0.56,3.36-1.51,4.67l-0.8,0.96l-0.03,0.03c-1.45,1.439-3.45,2.34-5.66,2.34h-34
			c-4.42,0-8,3.58-8,8v4c0,1.74,0.561,3.359,1.51,4.67l0.801,0.96l0.029,0.03c1.45,1.439,3.45,2.34,5.66,2.34h32
			c16.57,0,30-13.43,30-30v-10c0-4.42-3.58-8-8-8h-42C624,145.58,627.58,142,632,142z"/>
	</g>
	<g>
		<path fill="#FFFFFF" d="M512,178h-9c-2.21,0-4.21-0.9-5.66-2.34l-0.03-0.03l-0.8-0.96c-0.95-1.31-1.51-2.93-1.51-4.67v-48h11
			c2.21,0,4.21-0.9,5.66-2.34l0.03-0.03l0.8-0.96c0.95-1.311,1.51-2.93,1.51-4.67v-3c0-4.42-3.58-8-8-8h-11V90c0-4.42-3.58-8-8-8h-4
			c-4.42,0-8,3.58-8,8v13h-11c-4.42,0-8,3.58-8,8v3c0,1.74,0.56,3.359,1.51,4.67l0.8,0.96l0.03,0.03c1.45,1.439,3.45,2.34,5.66,2.34
			h11v46c0,16.57,13.43,30,30,30h7c2.21,0,4.21-0.9,5.66-2.34l0.03-0.03l0.8-0.96c0.95-1.31,1.51-2.93,1.51-4.67v-4
			C520,181.58,516.42,178,512,178z"/>
	</g>
	<g>
		<path fill="#FFFFFF" d="M585,170c2.21,0,4.21-0.9,5.66-2.34l0.029-0.03l0.801-0.96c0.949-1.311,1.51-2.93,1.51-4.67v-10
			c0-16.57-13.43-30-30-30h-10c-16.57,0-30,13.43-30,30v16c0,16.57,13.43,30,30,30h32c2.21,0,4.21-0.9,5.66-2.34l0.029-0.03
			l0.801-0.96c0.949-1.311,1.51-2.93,1.51-4.67v-4c0-4.42-3.58-8-8-8h-34c-2.21,0-4.21-0.9-5.66-2.34l-0.03-0.03l-0.8-0.96
			c-0.95-1.31-1.51-2.93-1.51-4.67h16H585z M551,142h14c4.42,0,8,3.58,8,8h-30C543,145.58,546.58,142,551,142z"/>
	</g>
	<g>
		<path fill="#FFFFFF" d="M248,82h-8c-2.4,0-4.55,1.061-6.02,2.74l-0.78,1.06l-18.25,24.771c-0.14,0.25-0.29,0.49-0.46,0.72
			l-0.62,0.75l-0.18,0.21l-0.03,0.029c-1.45,1.441-3.45,4.341-5.66,4.341s-4.21-2.899-5.66-4.341l-0.03-0.029l-0.18-0.21l-0.62-0.75
			c-0.17-0.229-0.32-0.47-0.46-0.72L182.8,85.8l-0.78-1.06C180.55,83.061,178.4,82,176,82h-8c-4.42,0-8,3.58-8,8v100
			c0,1.74,0.56,3.36,1.51,4.67l0.8,0.96l0.03,0.03c1.45,1.439,3.45,2.34,5.66,2.34h4c2.21,0,4.21-0.9,5.66-2.34l0.03-0.03l0.8-0.96
			c0.95-1.31,1.51-2.93,1.51-4.67v-76l20.405,26.965l2.298,3.036c1.373,1.099,3.113,1.766,5.01,1.766c2.21,0,4.21-0.9,5.66-2.34
			l0.029-0.031l0.405-0.485l0.72-1.003L236,112v78c0,1.74,0.56,3.36,1.51,4.67l0.8,0.96l0.03,0.03c1.45,1.439,3.45,2.34,5.66,2.34h4
			c2.21,0,4.21-0.9,5.66-2.34l0.029-0.03l0.801-0.96c0.949-1.31,1.51-2.93,1.51-4.67V90C256,85.58,252.42,82,248,82z"/>
	</g>
</g>
</svg>
